<mxfile host="app.diagrams.net" modified="2024-07-09T16:55:39.115Z" agent="Mozilla/5.0 (Windows NT 10.0; Win64; x64) AppleWebKit/537.36 (KHTML, like Gecko) Chrome/126.0.0.0 Safari/537.36" etag="aLyt1cdsen1QvALDHv5H" version="24.6.4" type="github">
  <diagram name="Page-1" id="6F5gO69ql-gFi3o_HPh0">
    <mxGraphModel dx="1690" dy="452" grid="1" gridSize="10" guides="1" tooltips="1" connect="1" arrows="1" fold="1" page="1" pageScale="1" pageWidth="850" pageHeight="1100" math="0" shadow="0">
      <root>
        <mxCell id="0" />
        <mxCell id="1" parent="0" />
        <mxCell id="WN4V7itdwWJBg9gGsL8r-2" value="Selesai" style="fixedSize=1;html=1;shape=mxgraph.flowchart.terminator;whiteSpace=wrap;" parent="1" vertex="1">
          <mxGeometry x="-690" y="740" width="100" height="60" as="geometry" />
        </mxCell>
        <mxCell id="nPtBshuYc2UyCf0H4S5G-3" value="" style="edgeStyle=orthogonalEdgeStyle;rounded=0;orthogonalLoop=1;jettySize=auto;html=1;" parent="1" source="WN4V7itdwWJBg9gGsL8r-3" target="WN4V7itdwWJBg9gGsL8r-4" edge="1">
          <mxGeometry relative="1" as="geometry" />
        </mxCell>
        <mxCell id="WN4V7itdwWJBg9gGsL8r-3" value="Da&lt;span style=&quot;color: rgba(0, 0, 0, 0); font-family: monospace; font-size: 0px; text-align: start; text-wrap: nowrap;&quot;&gt;%3CmxGraphModel%3E%3Croot%3E%3CmxCell%20id%3D%220%22%2F%3E%3CmxCell%20id%3D%221%22%20parent%3D%220%22%2F%3E%3CmxCell%20id%3D%222%22%20value%3D%22Selesai%22%20style%3D%22fixedSize%3D1%3Bhtml%3D1%3Bshape%3Dmxgraph.flowchart.terminator%3BwhiteSpace%3Dwrap%3B%22%20vertex%3D%221%22%20parent%3D%221%22%3E%3CmxGeometry%20x%3D%22-333%22%20y%3D%22135.5%22%20width%3D%22110%22%20height%3D%2263%22%20as%3D%22geometry%22%2F%3E%3C%2FmxCell%3E%3C%2Froot%3E%3C%2FmxGraphModel%3E&lt;/span&gt;ta Cleaning" style="rounded=0;whiteSpace=wrap;html=1;" parent="1" vertex="1">
          <mxGeometry x="-700" y="380" width="120" height="40" as="geometry" />
        </mxCell>
        <mxCell id="nPtBshuYc2UyCf0H4S5G-5" value="" style="edgeStyle=orthogonalEdgeStyle;rounded=0;orthogonalLoop=1;jettySize=auto;html=1;" parent="1" source="WN4V7itdwWJBg9gGsL8r-4" target="WN4V7itdwWJBg9gGsL8r-5" edge="1">
          <mxGeometry relative="1" as="geometry" />
        </mxCell>
        <mxCell id="WN4V7itdwWJBg9gGsL8r-4" value="Tokenization" style="rounded=0;whiteSpace=wrap;html=1;" parent="1" vertex="1">
          <mxGeometry x="-700" y="460" width="120" height="40" as="geometry" />
        </mxCell>
        <mxCell id="XoeJgvms6MQNlvGPQvPQ-1" value="" style="edgeStyle=orthogonalEdgeStyle;rounded=0;orthogonalLoop=1;jettySize=auto;html=1;" edge="1" parent="1" source="WN4V7itdwWJBg9gGsL8r-5" target="WN4V7itdwWJBg9gGsL8r-39">
          <mxGeometry relative="1" as="geometry" />
        </mxCell>
        <mxCell id="WN4V7itdwWJBg9gGsL8r-5" value="Padding and truncation" style="rounded=0;whiteSpace=wrap;html=1;" parent="1" vertex="1">
          <mxGeometry x="-700" y="550" width="120" height="40" as="geometry" />
        </mxCell>
        <mxCell id="nPtBshuYc2UyCf0H4S5G-2" value="" style="edgeStyle=orthogonalEdgeStyle;rounded=0;orthogonalLoop=1;jettySize=auto;html=1;" parent="1" source="WN4V7itdwWJBg9gGsL8r-31" target="WN4V7itdwWJBg9gGsL8r-3" edge="1">
          <mxGeometry relative="1" as="geometry" />
        </mxCell>
        <mxCell id="WN4V7itdwWJBg9gGsL8r-31" value="Dataset" style="shape=parallelogram;perimeter=parallelogramPerimeter;whiteSpace=wrap;html=1;fixedSize=1;" parent="1" vertex="1">
          <mxGeometry x="-710" y="290" width="140" height="47" as="geometry" />
        </mxCell>
        <mxCell id="nPtBshuYc2UyCf0H4S5G-1" value="" style="edgeStyle=orthogonalEdgeStyle;rounded=0;orthogonalLoop=1;jettySize=auto;html=1;" parent="1" source="WN4V7itdwWJBg9gGsL8r-34" target="WN4V7itdwWJBg9gGsL8r-31" edge="1">
          <mxGeometry relative="1" as="geometry" />
        </mxCell>
        <mxCell id="WN4V7itdwWJBg9gGsL8r-34" value="Mulai" style="fixedSize=1;html=1;shape=mxgraph.flowchart.terminator;whiteSpace=wrap;" parent="1" vertex="1">
          <mxGeometry x="-690" y="190" width="100" height="60" as="geometry" />
        </mxCell>
        <mxCell id="nPtBshuYc2UyCf0H4S5G-8" value="" style="edgeStyle=orthogonalEdgeStyle;rounded=0;orthogonalLoop=1;jettySize=auto;html=1;" parent="1" source="WN4V7itdwWJBg9gGsL8r-39" target="WN4V7itdwWJBg9gGsL8r-2" edge="1">
          <mxGeometry relative="1" as="geometry" />
        </mxCell>
        <mxCell id="WN4V7itdwWJBg9gGsL8r-39" value="Normalized Dataset" style="shape=parallelogram;perimeter=parallelogramPerimeter;whiteSpace=wrap;html=1;fixedSize=1;" parent="1" vertex="1">
          <mxGeometry x="-710" y="640" width="140" height="50" as="geometry" />
        </mxCell>
        <mxCell id="nPtBshuYc2UyCf0H4S5G-4" style="edgeStyle=orthogonalEdgeStyle;rounded=0;orthogonalLoop=1;jettySize=auto;html=1;exitX=0.5;exitY=1;exitDx=0;exitDy=0;" parent="1" source="WN4V7itdwWJBg9gGsL8r-5" target="WN4V7itdwWJBg9gGsL8r-5" edge="1">
          <mxGeometry relative="1" as="geometry" />
        </mxCell>
      </root>
    </mxGraphModel>
  </diagram>
</mxfile>
